#!OML:ASF E:\emotionWalksFemale\Project 1\Capture day 1\Session 1\Female1.ASF
:FULLY-SPECIFIED
:DEGREES
2111
root 10.2291 15.7651 -37.1258 -778.88 80.1098 -56.5733
lowerback 5.97676 0.0453411 -4.13196
upperback -6.12602 -0.430538 -1.79408
thorax -9.86832 0.052967 0.456871
lowerneck -10.6106 -2.79745 -5.08524
upperneck 24.8808 -3.1746 2.88358
head 9.74833 -1.46396 1.53226
rclavicle 8.74653e-015 -1.59028e-014
rhumerus 21.7193 14.2634 -38.5902
rradius 31.9737
rwrist 17.4611
rhand -4.1641 -35.6696
rfingers 7.12502
rthumb 21.5964 -424.485
lclavicle 8.74653e-015 -1.59028e-014
lhumerus 26.3193 -11.3412 52.448
lradius 29.9028
lwrist -32.6406
lhand -11.0121 -50.817
lfingers 7.12502
lthumb 15.0088 -21.3809
rfemur -21.44 8.83205 19.265
rtibia 24.2015
rfoot -24.9772 -30.0257
rtoes -5.51106
lfemur 5.14996 -23.3703 -23.704
ltibia 22.1871
lfoot -32.9505 28.0414
ltoes 20.2011
2112
root 10.2981 15.776 -37.1238 -780.183 80.4884 -57.9659
lowerback 5.85624 -0.00127883 -4.24819
upperback -6.1312 -0.500411 -1.8535
thorax -9.79993 0.0251436 0.468289
lowerneck -10.5023 -2.75748 -5.1323
upperneck 24.9134 -3.11585 2.91938
head 9.73799 -1.43532 1.56134
rclavicle -9.14409e-015 3.02153e-014
rhumerus 21.5807 12.8732 -40.1538
rradius 31.3066
rwrist 19.4224
rhand -4.31675 -34.9817
rfingers 7.12502
rthumb 21.4498 -423.814
lclavicle -9.14409e-015 3.02153e-014
lhumerus 26.4238 -11.5123 52.448
lradius 29.8605
lwrist -32.7042
lhand -10.8479 -51.063
lfingers 7.12502
lthumb 15.167 -21.6389
rfemur -21.8608 9.34609 18.9315
rtibia 23.7542
rfoot -25.1567 -30.7158
rtoes -5.14583
lfemur 5.38633 -23.4285 -23.9308
ltibia 21.9547
lfoot -32.7173 27.6229
ltoes 21.2072
2113
root 10.3666 15.7804 -37.1216 -781.677 80.7023 -59.4627
lowerback 5.85514 -0.0299002 -4.16226
upperback -6.12436 -0.533005 -1.90315
thorax -9.79082 0.00130193 0.371976
lowerneck -10.6517 -2.78131 -5.15933
upperneck 25.1403 -3.13307 2.92254
head 9.84938 -1.44195 1.56573
rclavicle 5.96354e-015 -3.49861e-014
rhumerus 21.5116 12.7382 -40.2046
rradius 31.2247
rwrist 19.3614
rhand -4.31103 -34.6653
rfingers 7.12502
rthumb 21.4553 -423.497
lclavicle 5.96354e-015 -3.49861e-014
lhumerus 26.4733 -12.0491 52.0495
lradius 30.0323
lwrist -32.2675
lhand -10.5721 -51.0782
lfingers 7.12502
lthumb 15.4327 -21.6743
rfemur -22.2108 9.82008 18.7853
rtibia 23.3494
rfoot -24.8202 -31.8321
rtoes -6.26328
lfemur 5.76844 -23.3449 -24.0439
ltibia 21.6252
lfoot -32.4847 27.4824
ltoes 20.682
2114
root 10.4357 15.7841 -37.1132 -782.888 80.8614 -60.5986
lowerback 5.95676 -0.0124192 -4.21416
upperback -6.11312 -0.519826 -1.88337
thorax -9.83953 0.0124864 0.420265
lowerneck -10.9557 -2.83991 -5.19793
upperneck 25.4916 -3.1693 2.84737
head 10.0363 -1.46599 1.54171
rclavicle -3.97569e-016 3.33958e-014
rhumerus 21.683 13.4376 -39.1744
rradius 31.3813
rwrist 18.172
rhand -4.24014 -34.8139
rfingers 7.12502
rthumb 21.5233 -423.638
lclavicle -3.97569e-016 3.33958e-014
lhumerus 26.5139 -12.6841 51.6696
lradius 30.2109
lwrist -31.7787
lhand -10.4144 -51.1062
lfingers 7.12502
lthumb 15.5846 -21.714
rfemur -22.4792 10.4551 18.6439
rtibia 22.9628
rfoot -25.3962 -32.5588
rtoes -4.83664
lfemur 6.27393 -23.1384 -24.1469
ltibia 21.2678
lfoot -32.3691 27.2251
ltoes 20.7426
2115
root 10.5031 15.7949 -37.1079 -784.084 81.1503 -61.8479
lowerback 5.70996 -0.00379153 -4.33443
upperback -5.98573 -0.504132 -1.91874
thorax -9.55204 0.0206562 0.449604
lowerneck -11.1776 -2.86677 -5.12571
upperneck 25.5756 -3.1836 2.73377
head 10.1072 -1.47724 1.48599
rclavicle 3.18055e-015 1.59028e-014
rhumerus 21.8544 13.5624 -38.5618
rradius 31.4617
rwrist 17.5329
rhand -4.25626 -35.2016
rfingers 7.12502
rthumb 21.5079 -424.027
lclavicle 3.18055e-015 1.59028e-014
lhumerus 26.8138 -12.8929 51.6313
lradius 30.1858
lwrist -31.8301
lhand -10.4403 -51.2033
lfingers 7.12502
lthumb 15.5596 -21.8092
rfemur -22.9248 9.69037 18.5892
rtibia 22.6374
rfoot -25.4073 -32.2222
rtoes -3.87526
lfemur 6.61981 -22.9654 -24.271
ltibia 20.8873
lfoot -32.1223 26.4971
ltoes 22.6604
2116
root 10.5685 15.8006 -37.1058 -785.71 81.5575 -63.5764
lowerback 5.85024 -0.057589 -4.56888
upperback -6.10719 -0.608764 -1.89983
thorax -9.76589 -0.00602595 0.613343
lowerneck -11.2148 -2.85399 -5.02775
upperneck 25.7599 -3.11014 2.47848
head 10.1726 -1.45946 1.38941
rclavicle -1.03368e-014 2.06736e-014
rhumerus 21.7518 13.709 -38.3337
rradius 31.5166
rwrist 17.4013
rhand -4.39304 -35.3997
rfingers 7.12502
rthumb 21.3765 -424.241
lclavicle -1.03368e-014 2.06736e-014
lhumerus 26.6387 -12.7813 52.1406
lradius 30.0905
lwrist -32.4558
lhand -10.5639 -51.123
lfingers 7.12502
lthumb 15.4406 -21.7197
rfemur -23.3436 12.0356 17.7661
rtibia 22.3417
rfoot -27.0554 -34.3767
rtoes -2.23847
lfemur 6.84192 -22.5767 -24.3921
ltibia 20.4863
lfoot -31.0193 26.1388
ltoes 20.721
2117
root 10.6389 15.7989 -37.097 -787.872 81.9892 -65.732
lowerback 5.81603 -0.172326 -4.71671
upperback -6.056 -0.779924 -1.99304
thorax -9.68194 -0.0838361 0.62093
lowerneck -11.2535 -2.8209 -4.90117
upperneck 25.7814 -3.08946 2.48146
head 10.1841 -1.43642 1.37141
rclavicle -1.63003e-014 6.99722e-014
rhumerus 21.8522 13.4552 -38.5415
rradius 31.3269
rwrist 17.7667
rhand -4.57922 -35.1215
rfingers 7.12502
rthumb 21.1977 -423.983
lclavicle -1.63003e-014 6.99722e-014
lhumerus 26.6793 -12.9181 51.9609
lradius 30.1217
lwrist -32.6167
lhand -10.5578 -51.0947
lfingers 7.12502
lthumb 15.4464 -21.6918
rfemur -23.6474 12.4301 17.3616
rtibia 22.0848
rfoot -26.5637 -35.5101
rtoes -4.64333
lfemur 7.23713 -22.2343 -24.5925
ltibia 20.0546
lfoot -29.8651 26.1535
ltoes 16.7945
